<mxfile host="app.diagrams.net" modified="2023-11-21T04:15:11.294Z" agent="Mozilla/5.0 (X11; Linux x86_64) AppleWebKit/537.36 (KHTML, like Gecko) Chrome/118.0.0.0 Safari/537.36 Edg/118.0.2088.66" version="22.1.3" etag="d3gtqhUzBiFnaRGfE8Hp" type="github">
  <diagram name="Page-1" id="BWQG2TBNzRFiocxcX96O">
    <mxGraphModel>
      <root>
        <mxCell id="0" />
        <mxCell id="1" parent="0" />
      </root>
    </mxGraphModel>
  </diagram>
</mxfile>
